<svg xmlns="http://www.w3.org/2000/svg" viewBox="0 0 79.35 22.27"><defs><style>.cls-1{fill:#1d294b;}</style></defs><g id="Capa_2" data-name="Capa 2"><g id="Capa_1-2" data-name="Capa 1"><polygon class="cls-1" points="1.8 22.21 1.8 18.84 4.17 18.84 4.17 19.18 2.17 19.18 2.17 20.34 3.96 20.34 3.96 20.68 2.17 20.68 2.17 21.87 4.2 21.87 4.2 22.21 1.8 22.21"/><polygon class="cls-1" points="7.42 22.21 5.3 19.45 5.3 22.21 4.94 22.21 4.94 18.84 5.29 18.84 7.35 21.54 7.35 18.84 7.71 18.84 7.71 22.21 7.42 22.21"/><polygon class="cls-1" points="9.51 22.21 9.51 19.19 8.41 19.19 8.41 18.84 10.98 18.84 10.98 19.19 9.88 19.19 9.88 22.21 9.51 22.21"/><rect class="cls-1" x="11.71" y="18.84" width="0.37" height="3.38"/><path class="cls-1" d="M13,18.84h1.14a1.66,1.66,0,0,1,1.74,1.68h0a1.66,1.66,0,0,1-1.74,1.69H13Zm.37.35v2.67h.77a1.29,1.29,0,0,0,1.36-1.32v0a1.29,1.29,0,0,0-1.36-1.33Z"/><path class="cls-1" d="M17.71,18.81h.34l1.5,3.4h-.4l-.39-.89H17l-.39.89h-.38ZM18.62,21l-.75-1.71L17.12,21Z"/><path class="cls-1" d="M20.19,18.84h1.14a1.66,1.66,0,0,1,1.75,1.68h0a1.67,1.67,0,0,1-1.75,1.69H20.19Zm.37.35v2.67h.77a1.29,1.29,0,0,0,1.36-1.32v0a1.29,1.29,0,0,0-1.36-1.33Z"/><path class="cls-1" d="M25.05,21.72l.23-.28a1.53,1.53,0,0,0,1.12.48c.44,0,.73-.24.73-.57h0c0-.32-.16-.5-.85-.65s-1.1-.42-1.1-1h0a1,1,0,0,1,1.08-.92,1.69,1.69,0,0,1,1.15.41l-.22.3a1.37,1.37,0,0,0-.94-.37c-.43,0-.7.24-.7.55h0c0,.31.17.49.89.65s1.07.44,1.07,1h0a1,1,0,0,1-1.12,1,1.89,1.89,0,0,1-1.34-.54"/><rect class="cls-1" x="28.3" y="18.84" width="0.37" height="3.38"/><polygon class="cls-1" points="29.63 18.84 29.97 18.84 32.04 21.54 32.04 18.84 32.4 18.84 32.4 22.21 32.1 22.21 29.99 19.45 29.99 22.21 29.63 22.21 29.63 18.84"/><path class="cls-1" d="M36,18.81h.35l1.49,3.4h-.4L37,21.32H35.22l-.39.89h-.38ZM36.86,21l-.74-1.71L35.37,21Zm-.42-3.1.37.17-.54.45H36Z"/><polygon class="cls-1" points="38.44 18.84 38.78 18.84 40.85 21.54 40.85 18.84 41.21 18.84 41.21 22.21 40.92 22.21 38.8 19.45 38.8 22.21 38.44 22.21 38.44 18.84"/><rect class="cls-1" x="42.17" y="18.84" width="0.37" height="3.38"/><polygon class="cls-1" points="43.5 18.84 43.88 18.84 45.07 20.68 46.27 18.84 46.64 18.84 46.64 22.21 46.27 22.21 46.27 19.48 45.08 21.29 45.06 21.29 43.86 19.48 43.86 22.21 43.5 22.21 43.5 18.84"/><path class="cls-1" d="M47.42,20.53h0a1.68,1.68,0,1,1,3.35,0h0a1.68,1.68,0,1,1-3.35,0m3,0h0a1.33,1.33,0,0,0-1.3-1.39,1.31,1.31,0,0,0-1.28,1.39h0a1.29,1.29,0,1,0,2.58,0"/><path class="cls-1" d="M53,18.84H54.1a1.66,1.66,0,0,1,1.74,1.68h0a1.66,1.66,0,0,1-1.74,1.69H53Zm.37.35v2.67h.77a1.29,1.29,0,0,0,1.36-1.32v0a1.29,1.29,0,0,0-1.36-1.33Z"/><polygon class="cls-1" points="56.63 18.84 58.99 18.84 58.99 19.18 56.99 19.18 56.99 20.34 58.78 20.34 58.78 20.68 56.99 20.68 56.99 21.87 59.02 21.87 59.02 22.21 56.63 22.21 56.63 18.84"/><polygon class="cls-1" points="61.17 18.84 61.54 18.84 61.54 21.86 63.39 21.86 63.39 22.21 61.17 22.21 61.17 18.84"/><path class="cls-1" d="M63.93,20.8v-2h.37v1.94c0,.73.38,1.13,1,1.13s1-.37,1-1.11v-2h.37v1.93a1.37,1.37,0,1,1-2.73,0"/><path class="cls-1" d="M67.39,20.53h0a1.7,1.7,0,0,1,2.94-1.2l-.25.27a1.42,1.42,0,0,0-1-.46,1.31,1.31,0,0,0-1.27,1.39h0a1.32,1.32,0,0,0,1.27,1.4,1.38,1.38,0,0,0,1-.49l.25.25a1.68,1.68,0,0,1-3-1.15"/><path class="cls-1" d="M71,18.84h1.41a1.28,1.28,0,0,1,.93.33,1,1,0,0,1,.25.67h0a1,1,0,0,1-.89,1l1,1.38h-.45l-1-1.31h-.93v1.31H71Zm1.37,1.72c.5,0,.85-.26.85-.7h0c0-.41-.31-.66-.84-.66h-1v1.37Z"/><path class="cls-1" d="M74.24,20.53h0a1.67,1.67,0,1,1,3.34,0h0a1.67,1.67,0,1,1-3.34,0m3,0h0a1.29,1.29,0,1,0-2.58,0h0a1.33,1.33,0,0,0,1.3,1.4,1.31,1.31,0,0,0,1.28-1.39"/><path class="cls-1" d="M73.87,4.64a5.57,5.57,0,0,0-5.49,5.65,5.49,5.49,0,1,0,11,0,5.57,5.57,0,0,0-5.48-5.65m0,8.43a2.78,2.78,0,1,1,2.7-2.78,2.74,2.74,0,0,1-2.7,2.78"/><path class="cls-1" d="M36.67,15.67H33.48L29.55,4.91h3.1l2,6.71c.24.82.4,1.73.4,1.73h0s.17-.91.41-1.73l2-6.71h3.09Z"/><rect class="cls-1" x="41.71" y="4.91" width="2.74" height="10.76"/><path class="cls-1" d="M52.45,7.07a3.91,3.91,0,0,0-1.27-.2c-1.71,0-2.62,1.41-2.62,3.45s.93,3.45,2.62,3.45a3.37,3.37,0,0,0,1.27-.22Zm-1.21,8.84c-3.51,0-5.42-2.06-5.42-5.55,0-3.31,1.75-5.55,5.08-5.55A5.33,5.33,0,0,1,52.45,5V0h2.76V15.13a9.37,9.37,0,0,1-4,.78"/><path class="cls-1" d="M62.67,7a4.58,4.58,0,0,0-1.23-.16,3.93,3.93,0,0,0-1.37.22v8.58H57.33V5.45a12.47,12.47,0,0,1,4.43-.78,8.82,8.82,0,0,1,1.41.1Z"/><rect class="cls-1" x="64.36" y="4.91" width="2.74" height="10.76"/><path class="cls-1" d="M5.35,15.9C2.05,15.9,0,13.76,0,10.3S1.94,4.73,4.94,4.73c2.83,0,4.59,1.87,4.59,4.89a7,7,0,0,1,0,.9l0,.17L3,11.58a2.34,2.34,0,0,0,2.56,1.84,6.24,6.24,0,0,0,2.73-.63l.22-.11L9.38,15l-.17.1a9.17,9.17,0,0,1-3.86.76M4.88,7.06c-1.24,0-2,.88-2.1,2.44L6.6,9c0-1.24-.66-1.91-1.72-1.91"/><path class="cls-1" d="M15.5,15.9c-2.37,0-4.77-1.73-4.77-5.59,0-4.12,2.57-5.58,4.77-5.58a4.87,4.87,0,0,1,2.82.74l.15.1-1,2.3-.21-.17a2.35,2.35,0,0,0-1.38-.39c-1.27,0-2.05,1.14-2.05,3s.8,3,2.05,3a2.35,2.35,0,0,0,1.38-.42l.22-.17,1,2.38-.15.1a4.88,4.88,0,0,1-2.82.74"/><path class="cls-1" d="M24.26,4.65a5.55,5.55,0,0,0-5.47,5.64,5.47,5.47,0,1,0,10.94,0,5.55,5.55,0,0,0-5.47-5.64m0,8.47v1.14a3.28,3.28,0,0,1-1.39-.82A3.49,3.49,0,0,1,22,12.15a3.8,3.8,0,0,1,.84-1.41,3.68,3.68,0,0,1,1.42-.9v1.08A2.69,2.69,0,0,0,25.7,10a5,5,0,0,0,.83-1.39,4,4,0,0,0-.84-1.27,4.2,4.2,0,0,0-1.43-.94v1a3.61,3.61,0,0,0-3.56,3.67A4.25,4.25,0,0,0,23,14.5c.07,0,.1.14,0,.13a3.92,3.92,0,0,1-2-1.28,4.79,4.79,0,0,1-.71-1.24,4.65,4.65,0,0,1-.38-1.82,4.44,4.44,0,0,1,4.37-4.51,3.62,3.62,0,0,1,3.56,3.67,3.62,3.62,0,0,1-3.56,3.67"/></g></g></svg>