<svg xmlns="http://www.w3.org/2000/svg" viewBox="0 0 112.55 31.85"><defs><style>.cls-1{fill:#1d294b;}</style></defs><g id="Capa_2" data-name="Capa 2"><g id="Capa_1-2" data-name="Capa 1"><path class="cls-1" d="M55.92,12.68c.83,0,1.28-.53,1.28-1.52s-.45-1.51-1.28-1.51-1.28.53-1.28,1.51.46,1.52,1.28,1.52"/><path class="cls-1" d="M32.63,15.73l-.09.15c-1,.38-.7.75-.7.75a1,1,0,0,1-1.06.49A1.85,1.85,0,0,0,30,18.8l.54-.34s-.19-.3.29-.63l.08.14.2-.11s.41-.24.56.08c0,0,.21.25-.23.5l-.2.12.07.13s-.55.18-.69-.05c-.65.44-.59.85-.59.85s-.21.11-.21.11c-.18-.84-.46-1-.46-1s-.58.27-.87-.19a.66.66,0,0,1-.62-.65v-3.9a1,1,0,0,1,.87.86c.47.27.47.47.44.56a.14.14,0,0,1,0,0,1.31,1.31,0,0,1,.49.38.26.26,0,0,1,.05.09.15.15,0,0,0,.06-.09,1.3,1.3,0,0,0,0-.43,7.14,7.14,0,0,0-.17-1.12c-.42.08-.59-.4-.59-.4-.62.08-.78-.7-.78-.7s-.26-.08-.39-.2V4.42a1.26,1.26,0,0,1,.89.88.92.92,0,0,1,0,.31c.5.23.53.52.53.52a.79.79,0,0,0-.37.71c-.73.36-.64,1.37-.64,1.37-.56.93-.1,1.31-.1,1.31l-.23.75a1.69,1.69,0,0,1,1.09,1.52c.42.2.42.1.42.1a2.46,2.46,0,0,1-.16-1.2.9.9,0,0,1-.52-1.29c-.5-.5.12-1.09.12-1.09-.24-1.15.46-1,.46-1a.38.38,0,0,1,.23-.39,1.14,1.14,0,0,1,0-.28c.09-.43.42-.43.42-.43.36,0,.42.26.42.43v.12a.71.71,0,0,1,.2.91.84.84,0,0,1,0,1,.72.72,0,0,1-.26,1,1,1,0,0,1-.81,1.14c0,1,.26,1.05.26,1.05a1.89,1.89,0,0,1,.5-.84A1.38,1.38,0,0,0,31,9.78a1.09,1.09,0,0,0,.36-.65c-.2-.66.39-.39.39-.39.79-.23.43.52.43.52a.75.75,0,0,1-.33,1.07.52.52,0,0,1-.42.48l-.34.46c-.68-.21-1.06.92-1.06.92-.31,1.15.05,1.34.05,1.34l.41-.47a.67.67,0,0,1,0-.77l.18.12a1.89,1.89,0,0,1,.43-.46c.68-.14.45.54.45.54a2.55,2.55,0,0,1-.28.41l.09.12a.71.71,0,0,1-.68.22l-.4.44A1.91,1.91,0,0,0,30.07,15c0,.11,0,.21,0,.31a3.06,3.06,0,0,1,0,.43,1,1,0,0,1-.14.59c.23.18,0,.49,0,.49a1.39,1.39,0,0,0-.1.56,2.51,2.51,0,0,1-.43.7,1.33,1.33,0,0,0,.3.58,2.3,2.3,0,0,1,.74-1.56c-.2-.28.28-.75.28-.75a1.2,1.2,0,0,1-.18-.61.67.67,0,0,1,.17-.43l0,0c.21-.17,0-.37,0-.37a.92.92,0,0,1,.79-1,.61.61,0,0,1,.54-.62c.24-.67.71-.36.71-.36.72,0,.38.69.38.69a1,1,0,0,1-.45,1.31.69.69,0,0,1,.06.37,1,1,0,0,1-.14.43m6.81,1.75a3.52,3.52,0,0,1,1.34.26c.17.08.17.1.17.22a.45.45,0,0,1,0,.08l-.22.66a2.09,2.09,0,0,0-1.15-.36,1.37,1.37,0,0,0-1.46,1.53c0,.91.5,1.48,1.21,1.48a1.11,1.11,0,0,0,.61-.12l0-.05v-.85h0a4.53,4.53,0,0,0-1,.14,4.36,4.36,0,0,0,.4-.89,1.71,1.71,0,0,0,.39,0h1.37a1.46,1.46,0,0,0-.19.9v1.42a4,4,0,0,1-1.55.32A2.22,2.22,0,0,1,37,19.85a2.27,2.27,0,0,1,2.49-2.37m4.87,0a2.12,2.12,0,0,1,2.34,2.38,2.13,2.13,0,0,1-2.34,2.39A2.13,2.13,0,0,1,42,19.86a2.12,2.12,0,0,1,2.34-2.38m3.21,0a2.68,2.68,0,0,0,.4,0h1.95a1.17,1.17,0,0,1,1.27,1.17,1.12,1.12,0,0,1-.55,1,1.14,1.14,0,0,1,.69,1.08c0,.87-.65,1.42-1.91,1.42l-1.19,0-.42,0a1.66,1.66,0,0,0,.16-.75V18.23a5.9,5.9,0,0,0-.8.14,4.36,4.36,0,0,0,.4-.89m4.89.07h1.46a1.57,1.57,0,0,0-.2.88V21.3a1.54,1.54,0,0,0,.2.87H52.41a1.54,1.54,0,0,0,.19-.87V18.43a1.58,1.58,0,0,0-.19-.88m2.59,0a1.71,1.71,0,0,0,.39,0h2.3c.22,0,.3,0,.32.2l-.2.7a1.56,1.56,0,0,0-.63-.08h-.81v1h1a1.57,1.57,0,0,0,.44,0l-.18.87a2.1,2.1,0,0,0-.41,0h-.86v1.21h1.16a1.52,1.52,0,0,0,.65-.09l-.12.64c-.06.27-.09.29-.41.29s-.88,0-1.57,0l-.93,0a1.92,1.92,0,0,0,.18-.87V18.4a.37.37,0,0,0,0-.11,5.34,5.34,0,0,0-.72.12,4.36,4.36,0,0,0,.4-.89m4,0a1.8,1.8,0,0,0,.4,0h1.4c1.1,0,1.65.55,1.65,1.4a1.27,1.27,0,0,1-.66,1.18,6.25,6.25,0,0,0,1.64,2.32,2.19,2.19,0,0,1-2.09-1.07l-.64-1h-.38v.92a1.57,1.57,0,0,0,.21.87H59.19a1.5,1.5,0,0,0,.19-.87v-3a5.45,5.45,0,0,0-.73.12,4.36,4.36,0,0,0,.4-.89m4.69,0a1.8,1.8,0,0,0,.4,0h1.07l2.24,3.09V18.43a1.62,1.62,0,0,0-.19-.88h1.41a1.55,1.55,0,0,0-.2.88v3.09a3.34,3.34,0,0,0,.06.65h-1l-2.38-3.29V21.3a1.65,1.65,0,0,0,.18.87h-1.4a1.58,1.58,0,0,0,.19-.87v-3a5.31,5.31,0,0,0-.79.13,4.36,4.36,0,0,0,.4-.89m8.12,0a2.12,2.12,0,0,1,2.34,2.38,2.35,2.35,0,1,1-4.69,0,2.12,2.12,0,0,1,2.35-2.38m5.1,0a1.8,1.8,0,0,0,.4,0h1.31s-.52.58.9,2.9l1-2.53a.89.89,0,0,0,.1-.37h1.35a3.64,3.64,0,0,0-.51.77l-2,3.93h-.18a14.39,14.39,0,0,1-1.86-4h0a4.52,4.52,0,0,0-1,.14,3.88,3.88,0,0,0,.4-.89m5.88,0a2.75,2.75,0,0,0,.4,0h1.69a8.15,8.15,0,0,1,1.42,4.62H85.14a3.44,3.44,0,0,0,0-1.27l-1,.47-1-.51a3.08,3.08,0,0,0,0,1.31H82v-.1a5.56,5.56,0,0,1,1.53-3.79h-.11a4.52,4.52,0,0,0-1,.14,3.88,3.88,0,0,0,.4-.89M87,21.75l.08-.85a1.86,1.86,0,0,0,1.3.47c.43,0,.68-.24.68-.5,0-.69-1.92-.84-1.92-2.11,0-.69.65-1.3,1.71-1.3.71,0,1.22.15,1.22.33a1.2,1.2,0,0,1,0,.14l-.18.63a2,2,0,0,0-1.13-.3c-.34,0-.5.12-.54.33s.25.44.69.69c.71.41,1.31.5,1.32,1.53,0,.76-.67,1.41-1.84,1.41-.82,0-1.36-.17-1.36-.45Zm6.2-4.27c.82,0,1.48.24,1.48.39l0,.09-.25.77a1.85,1.85,0,0,0-1.09-.38c-.83,0-1.34.55-1.34,1.52a1.3,1.3,0,0,0,1.34,1.46,1.84,1.84,0,0,0,1.31-.51v.86a.34.34,0,0,1-.07.26,2.32,2.32,0,0,1-1.32.31,2.15,2.15,0,0,1-2.34-2.37,2.18,2.18,0,0,1,2.3-2.4m4.48,0A2.12,2.12,0,0,1,100,19.86a2.35,2.35,0,1,1-4.69,0,2.12,2.12,0,0,1,2.35-2.38m-67.46,5s-.34,0-.42.3a.51.51,0,0,1,.09.81s.23.53-.19.76l0,.06c0,.14,0,.45-.47.64a1.09,1.09,0,0,1-.92.69,1.4,1.4,0,0,1-.41,0h-.06V23.87a1,1,0,0,1,.56-.2.78.78,0,0,1,.69-1,1.42,1.42,0,0,1,.41-1.28s-.35-.42.2-.93c0,0,.37-.91,1-.7,0,0,0-1,.91-.41,0,0,.55-.84.8-.05,0,0,0,.09.18.18s.24.51-.43.65a.68.68,0,0,1-.81.85s0,.56-.5.48c0,0-1.23-.63-1.49,1,0,0-.05.15.2.05l.61-.46a.38.38,0,0,1,.32-.43l.06.19s.45-.16.66-.05c0,0,.42.11.17.6a.68.68,0,0,1-.6.16s-.2,0-.08.2c-.08-.05-.41.07-.46-.31m-2.88,3.49a3.89,3.89,0,0,1-1,2V15.75h1V25.94Zm-2,2.7V15.75h.85V28.13a2.64,2.64,0,0,1-.85.51m-1,.19V15.75h.85v13a2.71,2.71,0,0,1-.51.12h-.34m-1,0V15.75h.85V28.83l-.85,0m-1,.09V15.75h.85V28.88l-.85.08m0,1.9a1,1,0,0,1-1-.14,1.69,1.69,0,0,1-.73-1h0l1.43-.24a1.67,1.67,0,0,1,.49.82.56.56,0,0,1-.23.52M20.3,29.31V15.75h.85V29.13c-.28.05-.57.11-.85.18m.07,1.38a.74.74,0,0,1-.66.41,1.35,1.35,0,0,1-1-.7h0a6.49,6.49,0,0,1,1.36-.49.85.85,0,0,1,.3.79M18.27,30V15.75h.85V29.66a8.35,8.35,0,0,0-.85.36m-1.1.79V15.75h.93V30.11a3.72,3.72,0,0,0-.93.7m3-1.46c-.29.07-.57.16-.85.25V15.75h.85Zm2-.37-.85.13V15.75h.85Zm-5-25.31H27.35V15.25H17.17ZM19,2.3c-.79-.14-.47-1-.47-1-.65-.56,0-1.09.6-.62.62-.55,1,.52,1,.52.82-.37.83.85.83.85L21.42,2a1.37,1.37,0,0,0,.26.64,1,1,0,0,0-.11.51H19.25C18.83,2.63,19,2.3,19,2.3M22,1.75l.21.05.07-.29s.13-.58.56-.45c0,0,.41,0,.27.66L23,2l.19,0s-.32.67-.66.6a3.22,3.22,0,0,0-.11.49h-.32a3.38,3.38,0,0,1,.11-.57v0a.77.77,0,0,1-.24-.8m1.76.39.51.1a.77.77,0,0,1,1.24.14c.66-.39,1,.31,1.15.76H23L23,3a1.45,1.45,0,0,0,.79-.9m5.63,18a1.06,1.06,0,0,0-.33,1.2s-.24.08-.36.81a1.78,1.78,0,0,0-.81.61V19.22a.76.76,0,0,1,.75-.16s.24.36.52.22a.51.51,0,0,1,0,.56.76.76,0,0,1,.26.34M36.94,8.83a1.71,1.71,0,0,0,.39,0h2.29c.23,0,.31,0,.33.2l-.21.7a1.53,1.53,0,0,0-.63-.08H38.3v1h1a1.57,1.57,0,0,0,.44,0l-.18.86-.42,0H38.3v1.21h1.17a1.52,1.52,0,0,0,.65-.09l-.13.64c-.05.27-.08.28-.4.28s-.89,0-1.57,0l-.94,0a1.79,1.79,0,0,0,.18-.87v-3a4.36,4.36,0,0,0-.73.12,4.42,4.42,0,0,0,.41-.89m3.66,0a1.84,1.84,0,0,0,.4,0h1.2a8.31,8.31,0,0,0-.53,2.59c0,.85.35,1.23,1.1,1.23a1.43,1.43,0,0,0,1-.3V9.74a1.56,1.56,0,0,0-.19-.88H45a1.56,1.56,0,0,0-.18.9v2.63c0,.47.11.77.36.92l-1.08.24a.76.76,0,0,1-.23-.31,2.62,2.62,0,0,1-1.31.32c-1.32,0-2-.67-2-2.05a11.89,11.89,0,0,1,.23-1.91c-.18,0-.4.06-.65.12a3.88,3.88,0,0,0,.4-.89m4.93,4.25.08-.85a1.88,1.88,0,0,0,1.3.47c.43,0,.68-.24.68-.5,0-.69-1.92-.83-1.92-2.11,0-.68.65-1.29,1.71-1.29A2.23,2.23,0,0,1,48.55,9l-.26.81a2.15,2.15,0,0,0-1-.23c-.34,0-.5.12-.54.33s.25.43.69.69c.71.41,1.31.49,1.32,1.52,0,.76-.67,1.41-1.84,1.41-.82,0-1.36-.16-1.36-.44Zm3.64-4.25a1.75,1.75,0,0,0,.4,0h1.16a1.54,1.54,0,0,0-.19.88v1.18l.85-1c.6-.7,1-1.07,1.24-1.07a.53.53,0,0,1,.27.1l.5.36a6.86,6.86,0,0,0-1.35,1.1l-.62.63.69.72a4.82,4.82,0,0,0,1.62,1.18c-.47.37-.77.6-1,.6s-.68-.37-1.31-1.12l-.66-.8-.23.21v.78a1.56,1.56,0,0,0,.19.87H49.3a1.5,1.5,0,0,0,.2-.87V9.74a.61.61,0,0,0,0-.14,4.11,4.11,0,0,0-.72.12,4.36,4.36,0,0,0,.4-.89m6.75-.05a2.13,2.13,0,0,1,2.35,2.38,2.35,2.35,0,1,1-4.69,0,2.12,2.12,0,0,1,2.34-2.38m5.9.81h0a2.88,2.88,0,0,0-.71.14,3.88,3.88,0,0,0,.4-.89c.14,0,0,0,.14,0h1.45a1.55,1.55,0,0,0-.19.9v2.73a2.14,2.14,0,0,1-.32,1.27,2.28,2.28,0,0,1-.39.48,1.22,1.22,0,0,1-.76.42,1.2,1.2,0,0,1-.67-.27,2.1,2.1,0,0,0,.94-1,1.93,1.93,0,0,0,.12-.9V9.59Zm2,3.78A5.56,5.56,0,0,1,65.3,9.58h-.11a4.45,4.45,0,0,0-1,.14,5,5,0,0,0,.4-.89,1.71,1.71,0,0,0,.39,0h1.69a8.1,8.1,0,0,1,1.43,4.62H66.92a3.29,3.29,0,0,0,0-1.28l-1,.47-1-.51a3.11,3.11,0,0,0,0,1.32H63.77Zm4.88-4.54a1.71,1.71,0,0,0,.39,0h1.19a8.31,8.31,0,0,0-.53,2.59c0,.85.35,1.23,1.11,1.23a1.42,1.42,0,0,0,1-.3V9.74a1.56,1.56,0,0,0-.19-.88H73a1.56,1.56,0,0,0-.18.9v2.63c0,.47.11.77.36.92l-1.08.24a.76.76,0,0,1-.23-.31,2.61,2.61,0,0,1-1.3.32c-1.32,0-2-.67-2-2.05a12.83,12.83,0,0,1,.23-1.9,5.07,5.07,0,0,0-.64.11,4.42,4.42,0,0,0,.41-.89m5.12,0a2.55,2.55,0,0,0,.39,0h1.41c1.09,0,1.64.55,1.64,1.39a1.27,1.27,0,0,1-.65,1.19,6.25,6.25,0,0,0,1.64,2.32c-.46.21-1.6-.33-2-1.07l-.65-1-.33,0h-.14v.92a1.6,1.6,0,0,0,.2.87H73.9a1.54,1.54,0,0,0,.2-.87v-3a5.43,5.43,0,0,0-.73.13,5,5,0,0,0,.4-.89m4.45,0a1.75,1.75,0,0,0,.4,0h1.26l-.1.08a1.9,1.9,0,0,0-.17.88v2.83h.93a1.84,1.84,0,0,0,.65-.2l-.14.81c0,.22-.14.25-.36.25-.42,0-.93,0-1.69,0l-.63,0a1.36,1.36,0,0,0,.18-.71V9.82a1.62,1.62,0,0,0,0-.22,5.34,5.34,0,0,0-.72.12,4.36,4.36,0,0,0,.4-.89m3.28,4.54A5.57,5.57,0,0,1,83,9.58h-.12a4.53,4.53,0,0,0-1,.14,4.36,4.36,0,0,0,.4-.89,1.8,1.8,0,0,0,.4,0h1.69a8.1,8.1,0,0,1,1.42,4.62H84.65a3.54,3.54,0,0,0,0-1.28l-1,.47-1-.51a3.28,3.28,0,0,0,0,1.32H81.5Zm4.9-4.53a2.55,2.55,0,0,0,.39,0H88.2c1.09,0,1.64.55,1.64,1.39a1.27,1.27,0,0,1-.65,1.19,6.25,6.25,0,0,0,1.64,2.32,2.23,2.23,0,0,1-2.09-1.07l-.65-1a1.64,1.64,0,0,1-.23,0h-.14v.92a1.6,1.6,0,0,0,.2.87H86.53a1.54,1.54,0,0,0,.2-.87v-3a5.43,5.43,0,0,0-.73.13,5,5,0,0,0,.4-.89m4.52,0h1.46a1.58,1.58,0,0,0-.19.88v2.87a1.54,1.54,0,0,0,.19.87H90.92a1.54,1.54,0,0,0,.2-.87V9.74a1.57,1.57,0,0,0-.2-.88M93,9c.06-.15.17-.15.35-.15H96a2.24,2.24,0,0,0,.55,0l-.17.68c-.06.25-.15.25-.41.25h-.82v2.87a1.56,1.56,0,0,0,.19.87H93.87a1.5,1.5,0,0,0,.19-.87V9.74h-.6a3,3,0,0,0-.8.12Zm4,.11c.06-.18.11-.26.28-.26h3.06l-2.22,3.8h.26l1.17,0a1.74,1.74,0,0,0,.81-.24l-.16.79c0,.25-.13.29-.36.29s-1,0-2.16,0c-.43,0-.85,0-1.28,0l2.27-3.82h-.94a2.27,2.27,0,0,0-.94.2Zm3.7,4.25a5.52,5.52,0,0,1,1.54-3.79h-.12a4.53,4.53,0,0,0-1,.14,4.36,4.36,0,0,0,.4-.89,1.71,1.71,0,0,0,.39,0h1.69a8.1,8.1,0,0,1,1.43,4.62h-1.22a3.29,3.29,0,0,0,0-1.28l-1,.47-1-.51a3.11,3.11,0,0,0,0,1.32h-1.16Zm-84,17.44a6.15,6.15,0,0,0-2.78-1.41,2.26,2.26,0,0,1,1.67.09.92.92,0,0,0,1.11,0Zm-2.55.29a.72.72,0,0,1-.65-.41c-.11-.31.12-.59.3-.8a7.08,7.08,0,0,1,1.36.5h0a1.35,1.35,0,0,1-1,.7m-1.67-.38a.94.94,0,0,1-1,.14.56.56,0,0,1-.23-.52,1.67,1.67,0,0,1,.49-.82h0l1.45.24a1.7,1.7,0,0,1-.74,1M7,27.51a1.35,1.35,0,0,0,.72-.26,1.85,1.85,0,0,1,1.76,0,.85.85,0,0,0,1.11,0,2,2,0,0,1,1.88-.05.91.91,0,0,0,1.23,0,1.83,1.83,0,0,1,1.8,0,.9.9,0,0,0,1.11,0v1a.9.9,0,0,1-1.11,0,1.83,1.83,0,0,0-1.8,0,.91.91,0,0,1-1.23,0,2,2,0,0,0-1.88.05.85.85,0,0,1-1.11,0,1.85,1.85,0,0,0-1.76,0h0A3.15,3.15,0,0,1,7,27.51M4.54,25c-.62-.24-.46-.7-.46-.7-.42-.23-.18-.76-.18-.76A.51.51,0,0,1,4,22.75c-.08-.26-.43-.3-.43-.3-.05.38-.38.26-.45.31.11-.22-.08-.2-.08-.2a.71.71,0,0,1-.61-.16c-.25-.49.18-.6.18-.6.21-.11.66.05.66.05l.05-.19a.38.38,0,0,1,.33.43l.6.46c.25.1.21-.05.21-.05-.27-1.65-1.49-1-1.49-1-.46.08-.51-.48-.51-.48a.68.68,0,0,1-.8-.85C1,20,1.17,19.6,1.21,19.5s.18-.18.18-.18c.26-.79.8.05.8.05.88-.57.92.41.92.41.58-.21,1,.7,1,.7.55.51.19.93.19.93a1.38,1.38,0,0,1,.41,1.28.79.79,0,0,1,.7,1,1,1,0,0,1,.56.21V25.7A1.16,1.16,0,0,1,4.54,25M1.27,15.88a1,1,0,0,1-.17-1,1,1,0,0,1-.45-1.31s-.34-.74.37-.69c0,0,.48-.31.71.36,0,0,.58.08.55.62a.92.92,0,0,1,.79,1s-.22.2,0,.37c.42.45,0,1.07,0,1.07s.48.47.28.75a2.32,2.32,0,0,1,.73,1.56,1.31,1.31,0,0,0,.31-.58,2.71,2.71,0,0,1-.44-.7,1.39,1.39,0,0,0-.1-.56s-.22-.31,0-.49c0,0-.23-.25-.11-1.33a1.91,1.91,0,0,0-.19-1.31l-.4-.44A.71.71,0,0,1,2.47,13l.09-.12a2.55,2.55,0,0,1-.28-.41s-.23-.68.45-.54a1.89,1.89,0,0,1,.43.46l.18-.12a.67.67,0,0,1,0,.77l.41.47s.36-.19,0-1.34c0,0-.37-1.13-1-.92l-.35-.46A.51.51,0,0,1,2,10.33a.75.75,0,0,1-.34-1.07s-.36-.75.44-.52c0,0,.59-.27.39.39a1.09,1.09,0,0,0,.36.65A1.39,1.39,0,0,0,3.46,11,2,2,0,0,1,4,11.8s.24,0,.26-1.05a1,1,0,0,1-.81-1.14.72.72,0,0,1-.26-1,.82.82,0,0,1,0-1,.69.69,0,0,1,.2-.91s-.08-.6.42-.55c0,0,.47,0,.44.71a.38.38,0,0,1,.23.39s.7-.13.47,1c0,0,.62.59.11,1.09a.9.9,0,0,1-.52,1.29,2.33,2.33,0,0,1-.16,1.2s0,.1.42-.1a1.69,1.69,0,0,1,1.1-1.52L5.6,9.52s.45-.38-.1-1.31c0,0,.09-1-.64-1.37a.81.81,0,0,0-.37-.71s0-.29.53-.52c0,0-.16-.79.91-1.2v8.46c-.12.12-.29.26-.39.21s-.16.78-.78.7c0,0-.17.48-.59.4,0,0-.34,1.44-.07,1.64,0,0,0-.2.55-.47,0,0-.24-.24.41-.61a1,1,0,0,1,.87-.86v3.85h0a.68.68,0,0,1-.62.69.7.7,0,0,1-.87.19s-.28.14-.46,1c0,0-.14-.15-.21-.11s0-.41-.6-.85c-.14.23-.68.05-.68.05l.07-.13-.2-.12c-.44-.25-.23-.5-.23-.5.15-.32.55-.08.55-.08l.2.11L3,17.83c.48.33.3.63.3.63l.53.34A1.83,1.83,0,0,0,3,17.12s-.79.11-1.07-.49c0,0,.28-.37-.69-.75m7-13.5a.77.77,0,0,1,1.24-.14l.5-.1a1.49,1.49,0,0,0,.8.9l0,.1H7.15c.14-.45.5-1.15,1.16-.76m2.4-.66c-.15-.64.27-.66.27-.66.43-.13.56.45.56.45l.07.29.2-.05a.73.73,0,0,1-.24.8v0a2.71,2.71,0,0,1,.1.57h-.32a3,3,0,0,0-.1-.49c-.34.07-.66-.6-.66-.6l.19,0ZM12.39,2l.42.08s0-1.22.83-.85c0,0,.38-1.07,1-.52.6-.47,1.25.06.6.62,0,0,.32.84-.48,1,0,0,.21.33-.21.84H12.23a1.11,1.11,0,0,0-.1-.51A1.51,1.51,0,0,0,12.39,2m3.15,21.67a1.84,1.84,0,0,0-.54-.2v-1a1.68,1.68,0,0,0,1.07-1.07,4.5,4.5,0,0,0-.76-3.56s-.72-1.27-1.47,0a4.78,4.78,0,0,0-.73,1.61,4.25,4.25,0,0,0-.75-1.61s-.72-1.27-1.47,0a5,5,0,0,0-.76,1.71v0a4.14,4.14,0,0,0-.78-1.75s-.72-1.27-1.47,0a4.6,4.6,0,0,0-.76,3.56,1.62,1.62,0,0,0,1.08,1.07v1.1h0a1.73,1.73,0,0,0-.45.19s-.49.42-.92.15l-.39-.15V15.75h10.2v7.93a.92.92,0,0,1-1.11,0m-1.38-.18v0a1.9,1.9,0,0,0-.42.18.91.91,0,0,1-1.23,0,1.64,1.64,0,0,0-.45-.16V22.42a1.74,1.74,0,0,0,1-1,1.68,1.68,0,0,0,1.05,1v1.06h0m-5.1,0v-1.1a1.7,1.7,0,0,0,1.07-1.07,1.62,1.62,0,0,0,1.08,1.07v1.07a1.85,1.85,0,0,0-.58.23.86.86,0,0,1-1.11,0,1.83,1.83,0,0,0-.45-.16ZM6.45,25.87h0V25l.39.16c.43.27.92-.15.92-.15a1.85,1.85,0,0,1,1.76,0,.86.86,0,0,0,1.11,0,2,2,0,0,1,1.88-.06.91.91,0,0,0,1.23,0,1.83,1.83,0,0,1,1.8,0,.9.9,0,0,0,1.11,0v1a.92.92,0,0,1-1.11,0,1.83,1.83,0,0,0-1.8,0,.91.91,0,0,1-1.23,0,2,2,0,0,0-1.88.06A.86.86,0,0,1,9.52,26a1.85,1.85,0,0,0-1.76,0s-.49.42-.92.15ZM8.59,10H8.2V9.43h.39Zm.61-.56h.38V10H9.2ZM8.92,11h0c.23,0,.35.27.35.27v.77H8.58v-.77s.11-.29.34-.27h0M4.43,20.18a.79.79,0,0,1,.25-.34.52.52,0,0,1,0-.56c.28.14.52-.22.52-.22a.71.71,0,0,1,.75.17v3.58a1.71,1.71,0,0,0-.82-.62c-.12-.73-.35-.81-.35-.81a1.06,1.06,0,0,0-.33-1.2M16.65,3.67V14.08l-4.45-.3-.51-.56.14-.14.07,0,.54-.57a.1.1,0,0,0,.08-.13l.05-.53-.1-.06-.2-1.76h.18l-.14-.77a.16.16,0,0,1,.18-.19c.28,0,.34-.17.34-.17l0-.13a.13.13,0,0,1,0-.21L13,8.41c.07-.25-.2-.23-.2-.23,0-.26-.24-.23-.24-.23,0-.22-.27-.2-.27-.2a.43.43,0,0,0-.68,0l-.36.47L11.16,10l.12.06-.06,1.2h-.11l-.16.7L11,12l-.21.23h0l-.13-.15h-.06V10.58l-.27-.33v-1l.3-.23V7.9h-.27v.25h-.3V7.9H9.81v.68h-.4V7.42H9.06v.25H8.74V7.42H8.38V8.61H8V7.9H7.73v.25h-.3V7.9H7.15V9l.3.23v1l-.22.33v1.51h0l-.75.7V3.67Zm95.9,11.63V6.62H31.2a1.06,1.06,0,0,0-1.32-.89,1.21,1.21,0,0,0-.39-.43.19.19,0,0,0-.1,0,2.32,2.32,0,0,0-1.51-1.44V3.14h-.59c-.13-.45-.57-1.5-1.68-1.39a1.32,1.32,0,0,0-1.37-.13,3.55,3.55,0,0,0-.56-.16,1,1,0,0,0-2-.06.43.43,0,0,1-.31,0,1,1,0,0,0-1-.81A1.12,1.12,0,0,0,19,.1a.88.88,0,0,0-1,1.37s0,.89.51,1.14a2.18,2.18,0,0,0,.18.53H15.15a2.8,2.8,0,0,0,.18-.53c.56-.25.51-1.14.51-1.14a.88.88,0,0,0-1-1.37,1.13,1.13,0,0,0-1.42.49,1,1,0,0,0-1,.81.43.43,0,0,1-.31,0,1,1,0,0,0-2,.06,3.55,3.55,0,0,0-.56.16,1.34,1.34,0,0,0-1.38.13c-1.11-.11-1.54.94-1.68,1.39H5.93v.69A2.35,2.35,0,0,0,4.41,5.27c-.23,0-.49.46-.49.46C2.4,5.48,2.54,7.32,2.54,7.32a1.14,1.14,0,0,0-.25.79,1.53,1.53,0,0,0-.81.05.78.78,0,0,0-.38.92,1.21,1.21,0,0,0,.57,1.67.86.86,0,0,0,.41.6.92.92,0,0,0-.58,1C-.32,11.89.06,13.69.06,13.69a1.21,1.21,0,0,0,.46,1.44,1.54,1.54,0,0,0,.81,1.44,1,1,0,0,0,.34.67c-.73.29-.31,1-.31,1A.83.83,0,0,0,.84,19a.9.9,0,0,0,.23,1.44,1,1,0,0,0,.83,1c-.53,1.3.61,1.56.61,1.56s.18.25.18.25a.58.58,0,0,1,.46.09l.14.41a1,1,0,0,0,.29.89c-.06.43.55.72.55.72.3.94,1.56.92,1.88.9a3.84,3.84,0,0,0,1.82,2.69,4.19,4.19,0,0,0,2,.41c.45,0,.87.05,1.26.09h0a2.6,2.6,0,0,1-.5.59.85.85,0,0,1-.72.06,4.57,4.57,0,0,0-1.06-.26,4.8,4.8,0,0,0-1.29.26.56.56,0,0,0,0,.46,3.68,3.68,0,0,1,1.1-.25,1.59,1.59,0,0,1,1.08.31,1.06,1.06,0,0,0,1-.09s-.15.87.89.92A2,2,0,0,0,13,30.88a1,1,0,0,0,1.14.75,2,2,0,0,0,1.45-1,4.07,4.07,0,0,1,1.29,1.18,4.06,4.06,0,0,1,1.28-1.16,2,2,0,0,0,1.45.94,1.11,1.11,0,0,0,1.14-.75,2,2,0,0,0,1.36.56c1-.05.89-.92.89-.92a1.06,1.06,0,0,0,1,.09,1.59,1.59,0,0,1,1.08-.31,3.68,3.68,0,0,1,1.1.25.51.51,0,0,0,0-.46A4.76,4.76,0,0,0,25,29.83a4.53,4.53,0,0,0-1.07.26.85.85,0,0,1-.72-.06,3.18,3.18,0,0,1-.49-.59,11.93,11.93,0,0,1,1.26-.1,4.22,4.22,0,0,0,2-.41,3.89,3.89,0,0,0,1.82-2.69,2.09,2.09,0,0,0,1.66-.53,1,1,0,0,0,.21-.37s.61-.29.55-.72a1.14,1.14,0,0,0,.19-.24h82.13V15.73H33.21a1.18,1.18,0,0,0,.08-.43Z"/><path class="cls-1" d="M84.21,20.48l.83-.42a5.27,5.27,0,0,0-.63-1.77,5.58,5.58,0,0,0-1,1.78Z"/><path class="cls-1" d="M88,10.91c.57,0,.85-.25.85-.67s-.28-.64-.81-.64a1.87,1.87,0,0,0-.34,0V10.9H88Z"/><path class="cls-1" d="M66.82,11.37a5.27,5.27,0,0,0-.63-1.77,5.91,5.91,0,0,0-1,1.78l.79.4Z"/><path class="cls-1" d="M60.67,19.61c.57,0,.86-.25.86-.67s-.28-.64-.82-.64l-.34,0V19.6h.3Z"/><path class="cls-1" d="M97.7,21.37c.82,0,1.27-.53,1.27-1.51s-.45-1.51-1.27-1.51-1.28.52-1.28,1.51.45,1.51,1.28,1.51"/><path class="cls-1" d="M103.75,11.37a5.4,5.4,0,0,0-.64-1.77,5.91,5.91,0,0,0-1,1.78l.79.4Z"/><path class="cls-1" d="M50.23,20.74c0-.43-.27-.69-.78-.69l-.52,0v1.32a4.92,4.92,0,0,0,.51,0c.5,0,.79-.25.79-.68"/><path class="cls-1" d="M44.31,21.37c.82,0,1.27-.53,1.27-1.51s-.45-1.51-1.27-1.51S43,18.87,43,19.86s.46,1.51,1.28,1.51"/><path class="cls-1" d="M50.14,18.82a.56.56,0,0,0-.63-.56,1.43,1.43,0,0,0-.58.11v1l.4,0c.54,0,.81-.19.81-.59"/><path class="cls-1" d="M84.56,11.37a5.27,5.27,0,0,0-.63-1.77,5.78,5.78,0,0,0-1,1.78l.79.4Z"/><path class="cls-1" d="M75.39,10.91c.56,0,.85-.25.85-.67S76,9.6,75.43,9.6a1.87,1.87,0,0,0-.34,0V10.9h.3Z"/><path class="cls-1" d="M71.86,21.37c.82,0,1.27-.53,1.27-1.51s-.45-1.51-1.27-1.51-1.28.52-1.28,1.51.45,1.51,1.28,1.51"/><path class="cls-1" d="M13.73,10.23l-.69.6h.46v.41l.65-.48.33.36-.6,1c-.14.27.2.43.2.43l-.59,1,.35,0,.19.36.69-1.17v-.24l.35-.5v.7c.14.35.41.23.41.23V14l.32-.23.35.24V12.64H16V9.76l.36-.31L16,9.15l-.25.24V11l-.45-.6.24-.7h-.23L15.54,9h-.26l.32-.69H14.33v.17h-.49v.41l.39,0a.34.34,0,0,1,.18.45c-.2.35-.57,0-.57,0l-.52-.68-.06.42h-.4Z"/><path class="cls-1" d="M20.2,9.63h-.7V8.54h.71a.83.83,0,0,0,0,1.09M21.69,7V6.35h1.09V7a.86.86,0,0,0-1.09,0m2.63,1.51H25V9.63h-.63a.86.86,0,0,0,0-1.09m-5.47-3.1h6.83v6.8H23a.61.61,0,0,1-.24-.35v-.78c0-.13.2-.2.2-.2h.56a.86.86,0,0,0,.62-1,.75.75,0,0,0,.12-.14h.87V8.41h-.9l-.09-.09a.86.86,0,0,0-.76-1.07,1.18,1.18,0,0,0-.35,0l-.09-.1V6.21H21.56v.94l-.08.08c-1.24,0-1.08,1.09-1.08,1.09l-.08.09h-.95V9.76h1l.07.06c0,1.06.69,1.1.69,1.1h.45a.41.41,0,0,1,.24.2v.78a.49.49,0,0,1-.24.35H18.85Zm5.84,8.18h1.13V5.31h-7.1v8.31h6Z"/><polygon class="cls-1" points="11.2 7.79 10.8 8.23 10.93 8.34 12.13 7.04 12.01 6.91 11.59 7.37 7.91 4.24 7.7 4.13 7.81 4.33 11.2 7.79"/><polygon class="cls-1" points="21.84 5.15 22.26 4.73 22.68 5.15 22.92 4.9 22.51 4.48 22.92 4.07 22.68 3.82 22.26 4.24 21.84 3.82 21.59 4.07 22.01 4.48 21.59 4.9 21.84 5.15"/><polygon class="cls-1" points="22.68 13.76 22.26 14.18 21.84 13.76 21.59 14.01 22.01 14.42 21.59 14.84 21.84 15.09 22.26 14.67 22.68 15.09 22.92 14.84 22.51 14.42 22.92 14.01 22.68 13.76"/><polygon class="cls-1" points="18.36 3.82 17.94 4.24 17.53 3.82 17.28 4.07 17.7 4.48 17.28 4.9 17.53 5.15 17.94 4.73 18.36 5.15 18.61 4.9 18.19 4.48 18.61 4.07 18.36 3.82"/><polygon class="cls-1" points="18.36 8.79 17.94 9.21 17.53 8.79 17.28 9.04 17.7 9.45 17.28 9.87 17.53 10.12 17.94 9.7 18.36 10.12 18.61 9.87 18.19 9.45 18.61 9.04 18.36 8.79"/><polygon class="cls-1" points="18.36 13.76 17.94 14.18 17.53 13.76 17.28 14.01 17.7 14.42 17.28 14.84 17.53 15.09 17.94 14.67 18.36 15.09 18.61 14.84 18.19 14.42 18.61 14.01 18.36 13.76"/><polygon class="cls-1" points="26.16 5.15 26.57 4.73 26.99 5.15 27.24 4.9 26.82 4.48 27.24 4.07 26.99 3.82 26.57 4.24 26.16 3.82 25.91 4.07 26.33 4.48 25.91 4.9 26.16 5.15"/><polygon class="cls-1" points="26.16 10.12 26.57 9.7 26.99 10.12 27.24 9.87 26.82 9.45 27.24 9.04 26.99 8.79 26.57 9.21 26.16 8.79 25.91 9.04 26.33 9.45 25.91 9.87 26.16 10.12"/><polygon class="cls-1" points="26.16 15.09 26.57 14.67 26.99 15.09 27.24 14.84 26.82 14.42 27.24 14.01 26.99 13.76 26.57 14.18 26.16 13.76 25.91 14.01 26.33 14.42 25.91 14.84 26.16 15.09"/></g></g></svg>