<svg xmlns="http://www.w3.org/2000/svg" viewBox="0 0 86.57 30.04"><defs><style>.cls-1{fill:#1d294b;}</style></defs><g id="Capa_2" data-name="Capa 2"><g id="Capa_1-2" data-name="Capa 1"><path class="cls-1" d="M56.4,6h0v6h6a6,6,0,0,0,6-6V0h-6a6,6,0,0,0-6,6Z"/><path class="cls-1" d="M59.36,25a3,3,0,1,0-3-3.3v.64A3,3,0,0,0,59.36,25Z"/><path class="cls-1" d="M34.78,19.06a3,3,0,0,0-3,3,2.93,2.93,0,0,0,.4,1.46l4-4.06A3,3,0,0,0,34.78,19.06Z"/><path class="cls-1" d="M8,19.06a3,3,0,0,0-3,3,3,3,0,0,0,.39,1.46L9.5,19.44A2.92,2.92,0,0,0,8,19.06Z"/><path class="cls-1" d="M24.29,19.06a3,3,0,1,0,3,3A3,3,0,0,0,24.29,19.06Z"/><path class="cls-1" d="M78.41,13.72h-22v4.71a4.63,4.63,0,1,1,0,7.11v.34a.83.83,0,0,1-1.65,0V22.37a2.55,2.55,0,0,1,0-.78V13.72H0v8.15A8.16,8.16,0,0,0,8.16,30H86.57V21.87A8.15,8.15,0,0,0,78.41,13.72Zm-67,11.55A4.63,4.63,0,1,1,8,17.4a4.68,4.68,0,0,1,3.33,1.41.82.82,0,0,1,0,1.13l-4.7,4.72a2.95,2.95,0,0,0,3.54-.55.83.83,0,1,1,1.18,1.16Zm7.34,1.07a4.43,4.43,0,0,1-1.69.33,4.64,4.64,0,0,1,0-9.27,4.77,4.77,0,0,1,1.68.31.83.83,0,0,1,.47,1.07.82.82,0,0,1-1.07.47A3.27,3.27,0,0,0,17,19.06a3,3,0,1,0,0,6,2.9,2.9,0,0,0,1.09-.21.84.84,0,0,1,1.07.47A.82.82,0,0,1,18.7,26.34Zm5.59.33A4.64,4.64,0,1,1,28.92,22,4.64,4.64,0,0,1,24.29,26.67Zm13.82-1.4a4.64,4.64,0,1,1-3.33-7.87,4.75,4.75,0,0,1,3.34,1.41.81.81,0,0,1,0,1.13l-4.7,4.72a2.95,2.95,0,0,0,3.54-.55.83.83,0,0,1,1.17,0A.82.82,0,0,1,38.11,25.27Zm15.38.57a.85.85,0,0,1-.84.84.84.84,0,0,1-.83-.84V22a3,3,0,0,0-3-3,3.11,3.11,0,0,0-1,.15,4.61,4.61,0,0,1,1,2.81v3.86a.83.83,0,1,1-1.66,0V22a3,3,0,0,0-3-3,2.92,2.92,0,0,0-2.12.88A3.11,3.11,0,0,0,41.22,22h0v3.91a.83.83,0,0,1-1.65,0V22a4.62,4.62,0,0,1,7-4,4.59,4.59,0,0,1,2.32-.63A4.65,4.65,0,0,1,53.49,22Zm19.73-.57a4.71,4.71,0,0,1-3.32,1.4,4.64,4.64,0,1,1,3.32-7.86.82.82,0,0,1,0,1.13l-4.71,4.72A3.05,3.05,0,0,0,69.9,25,3,3,0,0,0,72,24.11a.83.83,0,0,1,1.19,1.16ZM83,23.91a4.43,4.43,0,0,1-4.24,2.76,4.68,4.68,0,0,1-3.4-1.48.83.83,0,1,1,1.22-1.13,3,3,0,0,0,2.18,1,2.79,2.79,0,0,0,2.71-1.73.53.53,0,0,0,0-.37,0,0,0,0,0,0,0,.55.55,0,0,0-.18,0h-5A2,2,0,0,1,74.7,22a2,2,0,0,1-.18-1.86,4.58,4.58,0,0,1,4.24-2.77,4.7,4.7,0,0,1,3.15,1.23.83.83,0,0,1,0,1.17.82.82,0,0,1-1.17,0,3,3,0,0,0-2-.78,2.92,2.92,0,0,0-2.71,1.71.43.43,0,0,0,0,.31.54.54,0,0,0,.19.13h5A1.76,1.76,0,0,1,83,22.33,2.11,2.11,0,0,1,83,23.91Z"/><path class="cls-1" d="M69.9,19.06a3,3,0,0,0-3,3,3,3,0,0,0,.38,1.46l4.06-4.06A3,3,0,0,0,69.9,19.06Z"/><path class="cls-1" d="M54.75,6a6,6,0,0,0-6-6h-6V6a6,6,0,0,0,6,6h6V6h0S54.75,6,54.75,6Zm-6,4.35a4.35,4.35,0,0,1-.6-8.66,5.85,5.85,0,0,1,.6,0,4.35,4.35,0,1,1,0,8.7Z"/><path class="cls-1" d="M52.87,5.93h0a4.18,4.18,0,0,1-4.17,4.18A4.24,4.24,0,0,1,45.88,9a3.63,3.63,0,0,1,2.77-5.95V2a4,4,0,0,1,2.26,2.24,3.88,3.88,0,0,1-2.26,2.15V5.35a3.92,3.92,0,0,0-2.26,2.19,3.93,3.93,0,0,0,2.26,2.24v-1a3.65,3.65,0,0,0,3-5.76A4.13,4.13,0,0,1,52.87,5.93Z"/></g></g></svg>